<?xml version="1.0" ?><!DOCTYPE svg  PUBLIC '-//W3C//DTD SVG 1.1//EN'  'http://www.w3.org/Graphics/SVG/1.1/DTD/svg11.dtd' [
	<!ENTITY stroke_color "#000">
	<!ENTITY fill_color "#eee">
]><svg height="55px" viewBox="0 0 55 55" width="55px" xmlns="http://www.w3.org/2000/svg" xmlns:xlink="http://www.w3.org/1999/xlink" stroke-linecap="round" stroke-linejoin="round" stroke-width="3.5" stroke="&stroke_color;" fill="&fill_color;">
<g
     transform="translate(1.5133935,0.35804416)"
     id="g3052"><g
       transform="matrix(0.75,0,0,0.75,-1.156375,10.87525)"
       id="stock-xo_1_"
       style="display:block">
	<path
   d="m 33.233,35.1 10.102,10.1 c 0.752,0.75 1.217,1.783 1.217,2.932 0,2.287 -1.855,4.143 -4.146,4.143 -1.145,0 -2.178,-0.463 -2.932,-1.211 l -10.102,-10.103 -10.1,10.1 c -0.75,0.75 -1.787,1.211 -2.934,1.211 -2.284,0 -4.143,-1.854 -4.143,-4.141 0,-1.146 0.465,-2.184 1.212,-2.934 L 21.511,35.095 11.409,24.995 c -0.747,-0.748 -1.212,-1.785 -1.212,-2.93 0,-2.289 1.854,-4.146 4.146,-4.146 1.143,0 2.18,0.465 2.93,1.214 L 27.372,29.235 37.474,19.132 c 0.754,-0.749 1.787,-1.214 2.934,-1.214 2.289,0 4.146,1.856 4.146,4.145 0,1.146 -0.467,2.18 -1.217,2.932 L 33.233,35.1 z"
   id="path5"
   style="fill:&fill_color;;stroke:&stroke_color;;stroke-width:3.5" />
	<circle
   cx="27.371"
   cy="10.849"
   r="8.1219997"
   id="circle7"
   style="fill:&fill_color;;stroke:&stroke_color;;stroke-width:3.5" />
</g><g
       transform="matrix(0.4,0,0,0.4,26.061376,0.17806688)"
       id="activity-chat"
       style="display:block">
	<path
   d="m 9.263,48.396 c 0.682,1.152 6.027,0.059 8.246,-1.463 2.102,-1.432 3.207,-2.596 4.336,-2.596 1.133,0 12.54,0.92 20.935,-5.715 C 50.005,32.915 52.553,24.834 47.3,17.185 42.048,9.541 33.468,8.105 26.422,8.625 16.806,9.342 4.224,16.91 4.677,28.313 c 0.264,6.711 3.357,9.143 4.922,10.703 1.562,1.566 4.545,1.566 2.992,5.588 -0.61,1.579 -3.838,2.918 -3.328,3.792 z"
   id="path3042"
   style="fill:&fill_color;;stroke:&stroke_color;;stroke-width:3.5;display:inline" />
</g></g></svg>